<mxfile host="app.diagrams.net" modified="2022-12-01T14:13:03.370Z" agent="5.0 (Macintosh; Intel Mac OS X 10_15_7) AppleWebKit/537.36 (KHTML, like Gecko) Chrome/106.0.0.0 Safari/537.36" etag="A7T4Vtw94ReRyuetVIep" version="20.6.0" type="github">
  <diagram id="-X5GwTXH2f5F1lh-Zvcs" name="第 1 页">
    <mxGraphModel dx="1117" dy="693" grid="1" gridSize="10" guides="1" tooltips="1" connect="1" arrows="1" fold="1" page="1" pageScale="1" pageWidth="827" pageHeight="1169" math="0" shadow="0">
      <root>
        <mxCell id="0" />
        <mxCell id="1" parent="0" />
        <mxCell id="9aRJpanTBHcKRkpmwDhF-50" style="edgeStyle=orthogonalEdgeStyle;rounded=0;orthogonalLoop=1;jettySize=auto;html=1;exitX=0.5;exitY=1;exitDx=0;exitDy=0;entryX=0.5;entryY=1;entryDx=0;entryDy=0;fontColor=#EA6B66;labelBackgroundColor=#EA6B66;labelBorderColor=#EA6B66;strokeColor=#EA6B66;shadow=0;sketch=0;strokeWidth=2;" parent="1" source="9aRJpanTBHcKRkpmwDhF-49" target="9aRJpanTBHcKRkpmwDhF-5" edge="1">
          <mxGeometry relative="1" as="geometry">
            <Array as="points">
              <mxPoint x="485" y="620" />
              <mxPoint x="64" y="620" />
            </Array>
          </mxGeometry>
        </mxCell>
        <mxCell id="9aRJpanTBHcKRkpmwDhF-49" value="" style="rounded=0;whiteSpace=wrap;html=1;fillColor=#fff2cc;strokeColor=#d6b656;" parent="1" vertex="1">
          <mxGeometry x="370" y="150" width="230" height="440" as="geometry" />
        </mxCell>
        <mxCell id="9aRJpanTBHcKRkpmwDhF-2" value="" style="endArrow=classic;html=1;rounded=0;" parent="1" edge="1">
          <mxGeometry width="50" height="50" relative="1" as="geometry">
            <mxPoint x="99" y="266.5" as="sourcePoint" />
            <mxPoint x="199" y="266.5" as="targetPoint" />
            <Array as="points">
              <mxPoint x="179" y="266.5" />
            </Array>
          </mxGeometry>
        </mxCell>
        <mxCell id="9aRJpanTBHcKRkpmwDhF-3" value="" style="endArrow=classic;html=1;rounded=0;" parent="1" edge="1">
          <mxGeometry width="50" height="50" relative="1" as="geometry">
            <mxPoint x="200" y="292" as="sourcePoint" />
            <mxPoint x="100" y="292" as="targetPoint" />
            <Array as="points">
              <mxPoint x="200" y="292" />
            </Array>
          </mxGeometry>
        </mxCell>
        <mxCell id="9aRJpanTBHcKRkpmwDhF-5" value="" style="shape=image;html=1;verticalAlign=top;verticalLabelPosition=bottom;labelBackgroundColor=#ffffff;imageAspect=0;aspect=fixed;image=https://cdn0.iconfinder.com/data/icons/software-engineering-and-video-gaming/512/77_hacker_user_gammer_programmer-128.png" parent="1" vertex="1">
          <mxGeometry x="30" y="340" width="68" height="68" as="geometry" />
        </mxCell>
        <mxCell id="9aRJpanTBHcKRkpmwDhF-7" value="" style="points=[[0.35,0,0],[0.98,0.51,0],[1,0.71,0],[0.67,1,0],[0,0.795,0],[0,0.65,0]];verticalLabelPosition=bottom;sketch=0;html=1;verticalAlign=top;aspect=fixed;align=center;pointerEvents=1;shape=mxgraph.cisco19.user;fillColor=#005073;strokeColor=none;" parent="1" vertex="1">
          <mxGeometry x="39" y="252" width="50" height="50" as="geometry" />
        </mxCell>
        <mxCell id="9aRJpanTBHcKRkpmwDhF-8" value="dns解析请求数据" style="text;html=1;align=center;verticalAlign=middle;resizable=0;points=[];autosize=1;strokeColor=none;fillColor=none;" parent="1" vertex="1">
          <mxGeometry x="89" y="232" width="110" height="30" as="geometry" />
        </mxCell>
        <mxCell id="9aRJpanTBHcKRkpmwDhF-9" value="返回用户所需数据" style="text;html=1;align=center;verticalAlign=middle;resizable=0;points=[];autosize=1;strokeColor=none;fillColor=none;" parent="1" vertex="1">
          <mxGeometry x="89" y="292" width="120" height="30" as="geometry" />
        </mxCell>
        <mxCell id="9aRJpanTBHcKRkpmwDhF-10" value="" style="aspect=fixed;html=1;points=[];align=center;image;fontSize=12;image=img/lib/azure2/networking/DNS_Zones.svg;" parent="1" vertex="1">
          <mxGeometry x="209" y="255.5" width="43" height="43" as="geometry" />
        </mxCell>
        <mxCell id="9aRJpanTBHcKRkpmwDhF-11" value="" style="endArrow=classic;html=1;rounded=0;" parent="1" edge="1">
          <mxGeometry width="50" height="50" relative="1" as="geometry">
            <mxPoint x="260" y="265.5" as="sourcePoint" />
            <mxPoint x="360" y="265.5" as="targetPoint" />
            <Array as="points">
              <mxPoint x="340" y="265.5" />
            </Array>
          </mxGeometry>
        </mxCell>
        <mxCell id="9aRJpanTBHcKRkpmwDhF-12" value="" style="endArrow=classic;html=1;rounded=0;" parent="1" edge="1">
          <mxGeometry width="50" height="50" relative="1" as="geometry">
            <mxPoint x="361" y="291" as="sourcePoint" />
            <mxPoint x="261" y="291" as="targetPoint" />
            <Array as="points">
              <mxPoint x="361" y="291" />
            </Array>
          </mxGeometry>
        </mxCell>
        <mxCell id="9aRJpanTBHcKRkpmwDhF-13" value="CNAME转发" style="text;html=1;align=center;verticalAlign=middle;resizable=0;points=[];autosize=1;strokeColor=none;fillColor=none;" parent="1" vertex="1">
          <mxGeometry x="260" y="231" width="90" height="30" as="geometry" />
        </mxCell>
        <mxCell id="9aRJpanTBHcKRkpmwDhF-15" value="管理节点" style="aspect=fixed;html=1;points=[];align=center;image;fontSize=12;image=img/lib/azure2/networking/Web_Application_Firewall_Policies_WAF.svg;" parent="1" vertex="1">
          <mxGeometry x="513" y="334" width="62" height="62" as="geometry" />
        </mxCell>
        <mxCell id="9aRJpanTBHcKRkpmwDhF-18" value="Cloud DDos" style="aspect=fixed;html=1;points=[];align=center;image;fontSize=12;image=img/lib/azure2/networking/DDoS_Protection_Plans.svg;" parent="1" vertex="1">
          <mxGeometry x="457" y="20" width="56.00000000000001" height="68" as="geometry" />
        </mxCell>
        <mxCell id="9aRJpanTBHcKRkpmwDhF-19" value="my 工作节点" style="shape=image;html=1;verticalAlign=top;verticalLabelPosition=bottom;labelBackgroundColor=#ffffff;imageAspect=0;aspect=fixed;image=https://cdn2.iconfinder.com/data/icons/whcompare-servers-web-hosting/50/ddos-protection-128.png" parent="1" vertex="1">
          <mxGeometry x="420" y="157" width="68" height="68" as="geometry" />
        </mxCell>
        <mxCell id="9aRJpanTBHcKRkpmwDhF-20" value="sg 工作节点" style="shape=image;html=1;verticalAlign=top;verticalLabelPosition=bottom;labelBackgroundColor=#ffffff;imageAspect=0;aspect=fixed;image=https://cdn2.iconfinder.com/data/icons/whcompare-servers-web-hosting/50/ddos-protection-128.png" parent="1" vertex="1">
          <mxGeometry x="420" y="241" width="68" height="68" as="geometry" />
        </mxCell>
        <mxCell id="9aRJpanTBHcKRkpmwDhF-21" value="ph 工作节点" style="shape=image;html=1;verticalAlign=top;verticalLabelPosition=bottom;labelBackgroundColor=#ffffff;imageAspect=0;aspect=fixed;image=https://cdn2.iconfinder.com/data/icons/whcompare-servers-web-hosting/50/ddos-protection-128.png" parent="1" vertex="1">
          <mxGeometry x="420" y="329" width="68" height="68" as="geometry" />
        </mxCell>
        <mxCell id="9aRJpanTBHcKRkpmwDhF-27" value="" style="endArrow=classic;html=1;rounded=0;" parent="1" edge="1">
          <mxGeometry width="50" height="50" relative="1" as="geometry">
            <mxPoint x="620" y="266.5" as="sourcePoint" />
            <mxPoint x="720" y="266.5" as="targetPoint" />
            <Array as="points">
              <mxPoint x="700" y="266.5" />
            </Array>
          </mxGeometry>
        </mxCell>
        <mxCell id="9aRJpanTBHcKRkpmwDhF-28" value="" style="endArrow=classic;html=1;rounded=0;" parent="1" edge="1">
          <mxGeometry width="50" height="50" relative="1" as="geometry">
            <mxPoint x="721" y="292" as="sourcePoint" />
            <mxPoint x="621" y="292" as="targetPoint" />
            <Array as="points">
              <mxPoint x="721" y="292" />
            </Array>
          </mxGeometry>
        </mxCell>
        <mxCell id="9aRJpanTBHcKRkpmwDhF-29" value="从源站拉取数据" style="text;html=1;align=center;verticalAlign=middle;resizable=0;points=[];autosize=1;strokeColor=none;fillColor=none;" parent="1" vertex="1">
          <mxGeometry x="610" y="232" width="110" height="30" as="geometry" />
        </mxCell>
        <mxCell id="9aRJpanTBHcKRkpmwDhF-31" value="" style="aspect=fixed;perimeter=ellipsePerimeter;html=1;align=center;shadow=0;dashed=0;spacingTop=3;image;image=img/lib/active_directory/web_server.svg;" parent="1" vertex="1">
          <mxGeometry x="750" y="243.75" width="50" height="62.5" as="geometry" />
        </mxCell>
        <mxCell id="9aRJpanTBHcKRkpmwDhF-37" value="" style="edgeStyle=elbowEdgeStyle;elbow=horizontal;endArrow=classic;html=1;rounded=0;dashed=1;entryX=0.01;entryY=0.451;entryDx=0;entryDy=0;entryPerimeter=0;" parent="1" target="9aRJpanTBHcKRkpmwDhF-18" edge="1">
          <mxGeometry width="50" height="50" relative="1" as="geometry">
            <mxPoint x="230" y="252" as="sourcePoint" />
            <mxPoint x="280" y="202" as="targetPoint" />
            <Array as="points">
              <mxPoint x="230" y="222" />
            </Array>
          </mxGeometry>
        </mxCell>
        <mxCell id="9aRJpanTBHcKRkpmwDhF-38" value="" style="endArrow=classic;html=1;rounded=0;dashed=1;entryX=0.25;entryY=0;entryDx=0;entryDy=0;exitX=1.032;exitY=0.454;exitDx=0;exitDy=0;exitPerimeter=0;" parent="1" source="9aRJpanTBHcKRkpmwDhF-18" target="9aRJpanTBHcKRkpmwDhF-31" edge="1">
          <mxGeometry width="50" height="50" relative="1" as="geometry">
            <mxPoint x="403.5" y="88" as="sourcePoint" />
            <mxPoint x="403.5" y="238" as="targetPoint" />
            <Array as="points">
              <mxPoint x="764" y="51" />
            </Array>
          </mxGeometry>
        </mxCell>
        <mxCell id="9aRJpanTBHcKRkpmwDhF-40" value="流量攻击切换到DDos" style="text;html=1;align=center;verticalAlign=middle;resizable=0;points=[];autosize=1;strokeColor=none;fillColor=none;" parent="1" vertex="1">
          <mxGeometry x="79" y="110" width="140" height="30" as="geometry" />
        </mxCell>
        <mxCell id="9aRJpanTBHcKRkpmwDhF-41" value="" style="endArrow=classic;html=1;rounded=0;" parent="1" edge="1">
          <mxGeometry width="50" height="50" relative="1" as="geometry">
            <mxPoint x="103.5" y="384.5" as="sourcePoint" />
            <mxPoint x="203.5" y="384.5" as="targetPoint" />
            <Array as="points">
              <mxPoint x="183.5" y="384.5" />
            </Array>
          </mxGeometry>
        </mxCell>
        <mxCell id="9aRJpanTBHcKRkpmwDhF-43" value="发起cc攻击请求" style="text;html=1;align=center;verticalAlign=middle;resizable=0;points=[];autosize=1;strokeColor=none;fillColor=none;" parent="1" vertex="1">
          <mxGeometry x="93.5" y="350" width="110" height="30" as="geometry" />
        </mxCell>
        <mxCell id="9aRJpanTBHcKRkpmwDhF-44" value="" style="aspect=fixed;html=1;points=[];align=center;image;fontSize=12;image=img/lib/azure2/networking/DNS_Zones.svg;" parent="1" vertex="1">
          <mxGeometry x="211.5" y="360" width="43" height="43" as="geometry" />
        </mxCell>
        <mxCell id="9aRJpanTBHcKRkpmwDhF-45" value="" style="endArrow=classic;html=1;rounded=0;" parent="1" edge="1">
          <mxGeometry width="50" height="50" relative="1" as="geometry">
            <mxPoint x="260" y="383.5" as="sourcePoint" />
            <mxPoint x="360" y="383.5" as="targetPoint" />
            <Array as="points">
              <mxPoint x="340" y="383.5" />
            </Array>
          </mxGeometry>
        </mxCell>
        <mxCell id="9aRJpanTBHcKRkpmwDhF-47" value="CNAME转发" style="text;html=1;align=center;verticalAlign=middle;resizable=0;points=[];autosize=1;strokeColor=none;fillColor=none;" parent="1" vertex="1">
          <mxGeometry x="254.5" y="350" width="90" height="30" as="geometry" />
        </mxCell>
        <mxCell id="9aRJpanTBHcKRkpmwDhF-52" value="判断为攻击拒绝访问" style="text;html=1;align=center;verticalAlign=middle;resizable=0;points=[];autosize=1;strokeColor=none;fillColor=none;fontColor=#EA6B66;fontStyle=1" parent="1" vertex="1">
          <mxGeometry x="180" y="550" width="130" height="30" as="geometry" />
        </mxCell>
        <mxCell id="9aRJpanTBHcKRkpmwDhF-62" value="&lt;h1&gt;转发策略&lt;/h1&gt;&lt;p&gt;管理节点根据请求的域名，转发到对应地域工作节点&lt;/p&gt;当对应地域工作节点无响应，转发到其他地域工作节点&lt;br&gt;&lt;br&gt;当所有地域工作节点故障，转发到源站" style="text;html=1;strokeColor=none;fillColor=none;spacing=5;spacingTop=-20;whiteSpace=wrap;overflow=hidden;rounded=0;fontColor=#EA6B66;" parent="1" vertex="1">
          <mxGeometry x="380" y="418" width="190" height="162" as="geometry" />
        </mxCell>
      </root>
    </mxGraphModel>
  </diagram>
</mxfile>
